<svg xmlns="http://www.w3.org/2000/svg" viewBox="0 0 60 40" role="img">
<rect width="60" height="40" fill="#fff"/>
<rect width="60" height="13.333" fill="#ff0000"/>
<rect y="13.333" width="60" height="13.334" fill="#ffffff"/>
<rect y="26.667" width="60" height="13.333" fill="#171796"/>
<path d="M24 13h12v12c0 4-3 7-6 9-3-2-6-5-6-9z" fill="#ffffff" stroke="#1d2d5c" stroke-width=".8"/>
<rect x="25.0" y="14.0" width="2.5" height="2.5" fill="#ff0000"/>
<rect x="27.5" y="14.0" width="2.5" height="2.5" fill="#ffffff"/>
<rect x="30.0" y="14.0" width="2.5" height="2.5" fill="#ff0000"/>
<rect x="32.5" y="14.0" width="2.5" height="2.5" fill="#ffffff"/>
<rect x="25.0" y="16.5" width="2.5" height="2.5" fill="#ffffff"/>
<rect x="27.5" y="16.5" width="2.5" height="2.5" fill="#ff0000"/>
<rect x="30.0" y="16.5" width="2.5" height="2.5" fill="#ffffff"/>
<rect x="32.5" y="16.5" width="2.5" height="2.5" fill="#ff0000"/>
<rect x="25.0" y="19.0" width="2.5" height="2.5" fill="#ff0000"/>
<rect x="27.5" y="19.0" width="2.5" height="2.5" fill="#ffffff"/>
<rect x="30.0" y="19.0" width="2.5" height="2.5" fill="#ff0000"/>
<rect x="32.5" y="19.0" width="2.5" height="2.5" fill="#ffffff"/>
</svg>
